<svg width="18" height="23" viewBox="0 0 18 23" fill="none" xmlns="http://www.w3.org/2000/svg">
<path d="M16.5756 10.2574C16.0983 9.18303 15.4043 8.21869 14.5372 7.42476L13.8216 6.76822C13.7973 6.74654 13.7681 6.73115 13.7365 6.72341C13.7048 6.71567 13.6718 6.71582 13.6402 6.72383C13.6087 6.73184 13.5796 6.74748 13.5555 6.76936C13.5314 6.79125 13.513 6.81872 13.502 6.84937L13.1823 7.76655C12.9831 8.34194 12.6168 8.92962 12.0979 9.50747C12.0635 9.54435 12.0242 9.55419 11.9971 9.55665C11.9701 9.55911 11.9283 9.55419 11.8914 9.51976C11.857 9.49026 11.8397 9.44599 11.8422 9.40173C11.9332 7.92146 11.4906 6.25185 10.5218 4.4347C9.72014 2.92492 8.60625 1.74709 7.21449 0.925808L6.19896 0.328289C6.06618 0.249603 5.89651 0.352878 5.90389 0.50779L5.95798 1.68808C5.99487 2.4946 5.90143 3.20769 5.68012 3.8003C5.40964 4.52568 5.02113 5.19943 4.52443 5.80432C4.17876 6.22471 3.78697 6.60495 3.35644 6.93789C2.31952 7.73499 1.47637 8.75635 0.890132 9.92549C0.305335 11.1048 0.000713485 12.4032 0 13.7196C0 14.8802 0.22868 16.004 0.681123 17.0638C1.11799 18.0841 1.74844 19.0102 2.53761 19.7907C3.33431 20.5776 4.25886 21.1972 5.28915 21.6275C6.35633 22.075 7.48744 22.3013 8.65543 22.3013C9.82342 22.3013 10.9545 22.075 12.0217 21.63C13.0495 21.2022 13.984 20.5783 14.7732 19.7932C15.5699 19.0063 16.1945 18.0867 16.6297 17.0662C17.0815 16.0093 17.3132 14.8715 17.3109 13.7221C17.3109 12.5221 17.065 11.3566 16.5756 10.2574Z" fill="#FF7100"/>
</svg>
