<svg width="73" height="73" viewBox="0 0 73 73" fill="none" xmlns="http://www.w3.org/2000/svg">
<path d="M23.2167 73C8.26012 64.5706 4.32238 56.5919 6.5737 45.6948C8.23573 37.6484 13.6779 31.1018 14.1998 23.0707C16.5245 27.3013 17.4959 30.3519 17.7557 34.7729C25.1495 25.7139 30.0355 13.1732 30.3249 0C30.3249 0 49.5832 11.3156 50.8469 28.408C52.5048 24.8849 53.3393 19.2895 51.6814 15.6631C56.655 19.2897 85.7659 51.4841 47.7383 73C54.8879 59.079 49.5828 40.2953 37.1692 31.6201C37.9983 35.3503 36.5448 49.263 31.0529 55.3764C32.5746 45.1615 29.6051 40.8422 29.6051 40.8422C29.6051 40.8422 28.5859 46.5638 24.6315 52.3437C21.0204 57.6217 18.5183 63.2235 23.2167 73V73Z" fill="url(#paint0_linear_170_1567)"/>
<defs>
<linearGradient id="paint0_linear_170_1567" x1="36.5022" y1="0.12655" x2="36.5022" y2="73" gradientUnits="userSpaceOnUse">
<stop offset="0.145833" stop-color="#E83900"/>
<stop offset="0.515625" stop-color="#FF7623"/>
<stop offset="0.875" stop-color="#FEB503"/>
</linearGradient>
</defs>
</svg>
