<svg width="113" height="113" viewBox="0 0 113 113" fill="none" xmlns="http://www.w3.org/2000/svg">
<path d="M59.5996 10.5415C59.1583 10.056 58.6204 9.66804 58.0204 9.40258C57.4204 9.13713 56.7715 9 56.1154 9C55.4593 9 54.8104 9.13713 54.2104 9.40258C53.6104 9.66804 53.0725 10.056 52.6312 10.5415L10.2562 57.6248C9.63137 58.2985 9.21731 59.1404 9.06507 60.0465C8.91283 60.9527 9.02908 61.8836 9.39948 62.7245C9.76989 63.5654 10.3783 64.2796 11.1496 64.779C11.9209 65.2783 12.8215 65.5411 13.7404 65.5348H23.1571V98.4932C23.1571 99.7419 23.6531 100.939 24.5361 101.822C25.4191 102.705 26.6167 103.201 27.8654 103.201H84.3654C85.6141 103.201 86.8117 102.705 87.6947 101.822C88.5777 100.939 89.0737 99.7419 89.0737 98.4932V65.5348H98.4904C99.7391 65.5348 100.937 65.0388 101.82 64.1558C102.703 63.2728 103.199 62.0752 103.199 60.8265C103.207 59.6434 102.77 58.5003 101.975 57.6248L59.5996 10.5415Z" fill="white"/>
</svg>
